<?xml version="1.0" standalone="no"?>
<!DOCTYPE svg PUBLIC "-//W3C//DTD SVG 20010904//EN"
 "http://www.w3.org/TR/2001/REC-SVG-20010904/DTD/svg10.dtd">
<svg version="1.0" xmlns="http://www.w3.org/2000/svg"
 width="241.000000pt" height="241.000000pt" viewBox="0 0 241.000000 241.000000"
 preserveAspectRatio="xMidYMid meet">
<metadata>
Created by potrace 1.14, written by Peter Selinger 2001-2017
</metadata>
<g transform="translate(0.000000,241.000000) scale(0.100000,-0.100000)"
fill="#000000" stroke="none">
<path d="M1117 1824 c-1 -1 -49 -4 -106 -8 -253 -17 -501 -84 -692 -189 -85
-46 -169 -110 -169 -128 0 -6 5 -7 10 -4 6 3 10 1 10 -5 0 -6 -8 -9 -18 -6
-23 8 -65 -34 -57 -56 4 -9 2 -19 -4 -23 -7 -4 -8 1 -4 12 6 16 5 16 -10 4 -9
-7 -14 -17 -12 -22 3 -4 -2 -12 -11 -17 -9 -5 -15 -12 -15 -16 1 -3 -6 -20
-15 -37 -9 -18 -14 -44 -12 -60 3 -15 1 -26 -3 -23 -5 2 -7 -13 -6 -35 1 -24
5 -37 12 -34 5 3 5 0 -1 -6 -9 -10 -8 -25 4 -62 9 -27 20 -49 24 -49 5 0 6 -5
3 -10 -3 -6 1 -13 9 -16 9 -3 14 -10 11 -14 -3 -5 11 -25 30 -46 19 -20 35
-42 35 -48 0 -6 5 -4 10 4 8 13 10 12 10 -4 0 -12 5 -16 15 -13 8 4 17 1 21
-5 4 -7 3 -8 -4 -4 -7 4 -12 3 -12 -3 0 -15 138 -103 150 -96 6 3 10 0 10 -7
0 -11 24 -24 104 -57 5 -2 5 3 1 10 -4 8 2 4 14 -9 19 -19 25 -21 39 -10 11 9
13 9 9 1 -11 -17 26 -36 41 -21 9 9 15 9 25 -1 10 -10 8 -11 -7 -5 -13 5 -17
4 -13 -3 7 -11 73 -28 95 -24 6 1 12 -3 12 -9 0 -5 12 -10 26 -10 14 0 34 -5
45 -10 14 -8 19 -7 19 2 0 10 2 10 8 1 4 -7 29 -13 55 -15 26 -2 47 -6 47 -11
0 -4 12 -7 28 -7 15 1 44 -2 65 -5 24 -4 43 -2 53 6 12 9 13 9 9 -2 -4 -11 7
-15 44 -16 40 -2 51 1 54 15 4 16 5 16 6 -1 1 -16 13 -17 140 -15 130 1 140 3
151 22 6 13 9 14 6 4 -3 -10 -1 -20 4 -23 6 -4 10 2 10 12 0 10 3 14 8 8 4 -6
16 -10 27 -10 11 1 35 2 53 3 24 2 31 6 26 15 -6 8 -3 8 9 -1 9 -8 22 -10 29
-6 7 5 21 7 32 5 10 -1 16 2 12 7 -3 5 5 7 17 5 34 -5 123 22 119 37 -2 10 0
11 10 2 10 -8 31 -6 81 10 37 11 65 24 62 28 -3 5 5 6 17 2 17 -4 20 -2 15 11
-3 9 -1 19 5 23 6 4 8 3 4 -4 -3 -6 -2 -13 4 -17 5 -3 10 -1 10 5 0 6 4 8 10
5 5 -3 23 1 39 9 27 15 35 36 18 52 -4 4 -7 12 -7 18 1 11 23 -21 26 -36 1 -5
2 -10 3 -13 0 -3 19 6 41 20 22 14 42 25 45 25 2 0 31 20 62 44 64 48 145 135
138 146 -3 5 2 10 10 14 8 3 15 12 15 21 0 8 4 15 10 15 11 0 33 77 25 90 -3
5 -1 11 4 14 4 3 9 17 9 32 0 18 -3 22 -9 13 -6 -10 -9 -10 -9 -2 0 6 4 14 9
18 6 3 9 14 8 25 -1 10 -5 16 -10 13 -5 -3 -6 4 -3 15 4 11 2 23 -4 27 -6 3
-10 -4 -11 -17 -1 -18 -2 -19 -6 -5 -3 10 1 25 8 33 8 10 9 18 3 22 -6 4 -18
24 -28 45 -9 21 -45 67 -79 103 -165 174 -493 299 -867 330 -73 6 -288 12
-293 8z m-930 -309 c0 -8 -4 -12 -9 -9 -5 3 -6 10 -3 15 9 13 12 11 12 -6z
m2048 6 c3 -5 2 -12 -3 -15 -5 -3 -9 1 -9 9 0 17 3 19 12 6z m26 -54 c-10 -9
-11 -8 -5 6 3 10 9 15 12 12 3 -3 0 -11 -7 -18z m-2117 -12 c-4 -8 -11 -12
-16 -9 -6 4 -5 10 3 15 19 12 19 11 13 -6z m2080 0 c3 -8 0 -14 -7 -12 -7 1
-11 -4 -9 -10 1 -7 -5 -13 -13 -13 -14 0 -13 3 1 25 19 29 20 30 28 10z
m-1998 -27 c9 -18 27 -45 41 -59 14 -15 20 -29 15 -33 -5 -3 -12 4 -16 17 -5
17 -8 19 -15 8 -6 -10 -10 -10 -16 -1 -4 6 -4 14 -1 17 7 7 -25 63 -37 63 -4
0 -5 5 -2 10 9 15 13 13 31 -22z m2064 16 c0 -8 5 -12 10 -9 6 3 10 4 10 1 0
-16 -21 -13 -30 4 -7 13 -7 20 0 20 5 0 10 -7 10 -16z m-2146 -43 c-5 -6 -34
20 -34 30 0 5 8 1 18 -8 10 -10 17 -20 16 -22z m26 19 c8 -5 11 -10 5 -10 -5
0 -17 5 -25 10 -8 5 -10 10 -5 10 6 0 17 -5 25 -10z m2070 -15 c14 -19 14 -19
-2 -6 -10 7 -18 18 -18 24 0 6 1 8 3 6 1 -2 9 -13 17 -24z m56 -12 c-6 -6 -36
9 -36 18 0 5 9 4 20 -3 10 -7 18 -14 16 -15z m-2082 1 c3 -8 2 -12 -4 -9 -6 3
-10 10 -10 16 0 14 7 11 14 -7z m1973 1 c0 -8 -4 -12 -8 -10 -3 3 -12 -2 -18
-9 -10 -11 -8 -17 6 -26 16 -9 15 -10 -6 -4 -17 4 -21 3 -16 -6 5 -9 4 -11 -3
-6 -7 4 -12 2 -12 -4 0 -6 -5 -8 -12 -4 -8 5 -9 2 -5 -9 3 -9 3 -16 -1 -16
-19 3 -23 -2 -13 -15 9 -11 9 -16 -1 -22 -7 -4 -10 -4 -6 1 4 4 3 14 -3 21 -8
10 -3 21 21 45 17 18 38 43 47 56 17 26 30 30 30 8z m-2082 -5 c-3 -5 0 -10 7
-11 10 0 10 -2 0 -6 -6 -2 -10 -9 -7 -13 3 -5 0 -12 -7 -16 -7 -4 -10 -4 -6 1
4 4 0 14 -10 22 -16 12 -16 13 1 7 10 -4 17 -3 16 2 -2 14 0 24 7 24 3 0 2 -4
-1 -10z m2120 -11 c-4 -5 -12 -9 -18 -8 -9 0 -8 2 1 6 6 2 9 10 6 15 -4 7 -2
8 5 4 6 -4 9 -12 6 -17z m-2021 -14 c11 -8 15 -15 9 -15 -7 0 -15 5 -18 10 -4
6 -11 8 -16 5 -5 -4 -9 -1 -9 4 0 15 11 13 34 -4z m2046 5 c0 -5 -5 -10 -11
-10 -5 0 -7 5 -4 10 3 6 8 10 11 10 2 0 4 -4 4 -10z m60 -2 c0 -4 -4 -8 -9 -8
-6 0 -12 4 -15 8 -3 5 1 9 9 9 8 0 15 -4 15 -9z m-855 -17 c67 -10 143 -24
193 -36 12 -3 30 -7 40 -9 74 -17 282 -105 282 -119 0 -5 -6 -4 -14 2 -24 20
-72 -9 -67 -41 0 -5 -4 -8 -10 -8 -6 0 -9 7 -5 15 3 8 1 15 -4 15 -6 0 -10 -5
-10 -11 0 -5 -5 -7 -11 -3 -8 5 -10 -1 -7 -19 3 -18 1 -24 -8 -20 -7 2 -10 11
-7 19 3 8 0 14 -6 14 -6 0 -11 -5 -11 -10 0 -6 -5 -9 -12 -8 -7 2 -12 -2 -13
-9 0 -6 -4 -15 -8 -20 -5 -4 -8 -3 -7 2 4 20 0 26 -12 18 -13 -8 -33 -13 -56
-15 -8 -1 -10 -9 -6 -22 6 -21 6 -21 -10 -1 -10 12 -19 16 -23 10 -5 -5 -17
-11 -28 -11 -11 -1 -40 -5 -65 -10 -25 -4 -53 -8 -63 -8 -11 0 -16 -5 -12 -16
5 -12 4 -13 -6 -2 -16 15 -43 16 -33 1 5 -8 2 -9 -12 -1 -10 5 -27 7 -38 3
-12 -4 -49 -7 -83 -6 -35 0 -63 -3 -63 -6 0 -3 -10 -5 -22 -3 -60 9 -128 10
-128 2 0 -5 -5 -6 -10 -3 -21 13 -83 15 -96 4 -8 -7 -17 -9 -21 -5 -3 3 -1 6
5 6 7 0 12 3 12 8 0 4 -23 8 -51 10 -28 2 -61 7 -75 12 -16 7 -24 6 -24 -1 0
-8 -5 -7 -15 1 -8 7 -22 10 -30 6 -8 -3 -15 0 -15 5 0 6 -9 9 -20 6 -11 -3
-20 -1 -20 4 0 5 -8 9 -18 9 -9 0 -48 11 -86 25 -50 18 -65 21 -56 9 9 -10 10
-18 3 -25 -8 -8 -13 -7 -18 2 -5 8 -4 10 3 5 7 -4 12 -4 12 1 -1 13 -26 43
-37 43 -5 0 -32 11 -59 25 -27 14 -42 25 -34 25 8 0 29 7 45 16 103 54 357
118 512 131 43 3 80 7 82 9 7 6 289 -5 356 -15z m752 -6 c0 -8 -4 -12 -9 -9
-5 3 -6 10 -3 15 9 13 12 11 12 -6z m57 4 c-4 -8 1 -9 17 -5 20 6 21 5 6 -4
-19 -12 -41 -4 -32 11 4 5 8 9 11 9 3 0 2 -5 -2 -11z m-2091 -12 c3 -8 -1 -14
-8 -14 -7 0 -11 6 -8 14 3 7 6 13 8 13 2 0 5 -6 8 -13z m2077 -29 c0 -5 -5 -8
-11 -8 -5 0 -8 4 -4 9 3 5 1 12 -5 16 -5 3 -10 11 -10 18 0 12 29 -23 30 -35z
m-2117 25 c3 -5 -6 -9 -20 -10 -19 -1 -22 1 -12 8 17 11 26 11 32 2z m97 1 c0
-8 -19 -13 -24 -6 -3 5 1 9 9 9 8 0 15 -2 15 -3z m18 -14 c-7 -10 -14 -17 -17
-15 -4 4 18 35 25 35 2 0 -1 -9 -8 -20z m2112 10 c8 -5 11 -10 5 -10 -5 0 -17
5 -25 10 -8 5 -10 10 -5 10 6 0 17 -5 25 -10z m-2329 -23 c-10 -9 -11 -8 -5 6
3 10 9 15 12 12 3 -3 0 -11 -7 -18z m285 9 c8 -8 14 -21 14 -28 0 -10 -3 -9
-10 2 -5 8 -14 16 -20 16 -5 1 -18 2 -27 3 -16 2 -15 3 2 11 11 5 21 9 23 9 2
1 10 -5 18 -13z m-221 -14 c-3 -3 -11 0 -18 7 -9 10 -8 11 6 5 10 -3 15 -9 12
-12z m2050 8 c-3 -5 -2 -10 3 -10 6 0 12 -7 16 -15 7 -19 1 -19 -18 1 -14 14
-14 34 0 34 3 0 2 -4 -1 -10z m-2021 -30 c-6 -6 -10 -3 -10 10 0 13 4 16 10
10 7 -7 7 -13 0 -20z m126 -8 c0 -1 -9 2 -20 8 -11 6 -20 15 -20 20 0 6 9 2
20 -7 11 -10 20 -19 20 -21z m1974 13 c3 -8 0 -17 -6 -21 -7 -4 -8 -3 -4 4 4
7 3 12 -2 12 -6 0 -12 7 -15 14 -4 10 -1 13 8 10 7 -3 16 -12 19 -19z m-2154
4 c0 -5 -4 -8 -9 -4 -5 3 -12 1 -16 -5 -3 -5 -11 -10 -18 -10 -6 0 -2 7 9 15
23 17 34 19 34 4z m240 -14 c0 -2 -6 -7 -12 -11 -7 -4 -10 -4 -6 1 4 4 0 14
-10 22 -15 13 -15 13 6 3 12 -6 22 -13 22 -15z m1953 10 c-3 -9 -8 -14 -10
-11 -3 3 -2 9 2 15 9 16 15 13 8 -4z m57 -5 c-12 -23 -16 -24 -26 -8 -4 6 -3
8 3 5 6 -4 13 0 17 8 3 8 8 15 11 15 3 0 1 -9 -5 -20z m-2135 1 c3 -5 0 -13
-6 -17 -8 -5 -9 -3 -4 6 6 9 1 10 -16 5 -19 -5 -21 -4 -9 4 19 13 27 14 35 2z
m215 -35 c0 -1 -7 -3 -15 -3 -8 0 -12 4 -9 9 8 12 -10 10 -24 -4 -9 -9 -12 -9
-12 0 0 7 5 12 11 12 8 0 7 6 -2 17 -9 11 -3 10 19 -6 17 -12 32 -24 32 -25z
m1674 36 c2 -4 -5 -9 -17 -9 -17 -2 -19 0 -7 7 18 12 18 12 24 2z m-1991 -22
c-10 -11 -19 -20 -21 -20 -1 0 2 9 8 20 6 11 15 20 20 20 6 0 2 -9 -7 -20z
m2201 -20 c-5 -5 -10 3 -11 18 -1 22 0 24 9 8 6 -10 6 -22 2 -26z m-1966 10
c-7 -10 -14 -17 -17 -15 -4 4 18 35 25 35 2 0 -1 -9 -8 -20z m-188 -4 c-4 -4
-16 -4 -26 2 -16 9 -14 10 8 9 15 -1 23 -6 18 -11z m83 7 c3 -5 -6 -9 -20 -10
-19 -1 -22 1 -12 8 17 11 26 11 32 2z m67 -8 c19 -22 8 -25 -12 -3 -10 10 -14
18 -9 18 5 0 14 -7 21 -15z m1774 3 c-3 -4 -11 -5 -19 -1 -18 6 -19 -1 -5 -28
8 -13 7 -19 0 -19 -6 0 -8 -5 -4 -12 4 -6 3 -8 -4 -5 -5 4 -8 16 -5 26 4 15 0
19 -14 16 -10 -1 -17 -8 -16 -13 2 -6 -4 -9 -12 -5 -13 5 -13 7 2 18 10 7 21
11 24 9 4 -2 9 3 12 10 3 8 15 14 26 13 11 0 18 -5 15 -9z m79 5 c3 -5 -6 -9
-20 -10 -19 -1 -22 1 -12 8 17 11 26 11 32 2z m121 -5 c-3 -5 -10 -6 -15 -3
-5 4 -9 1 -9 -6 0 -7 -3 -10 -6 -6 -9 9 3 24 20 24 8 0 13 -4 10 -9z m74 -13
c-6 -14 -13 -23 -15 -21 -5 5 15 46 22 46 3 0 -1 -11 -7 -25z m56 17 c3 -5 -1
-9 -9 -9 -8 0 -12 4 -9 9 3 4 7 8 9 8 2 0 6 -4 9 -8z m-2132 -20 c-7 -2 -10
-8 -7 -12 3 -5 0 -12 -6 -16 -8 -4 -9 -3 -5 4 4 7 1 12 -6 13 -10 0 -10 2 0 6
6 2 10 9 7 14 -4 5 2 6 11 2 11 -4 13 -8 6 -11z m1913 -4 c-9 -6 -19 -7 -22
-4 -4 3 -1 6 6 6 7 0 9 4 6 10 -4 6 1 7 11 3 15 -6 15 -7 -1 -15z m-2115 2 c0
-5 -4 -10 -10 -10 -5 0 -10 5 -10 10 0 6 5 10 10 10 6 0 10 -4 10 -10z m55
-11 c-4 -5 0 -9 7 -10 10 0 10 -2 0 -6 -6 -2 -9 -10 -6 -15 4 -7 2 -8 -5 -4
-6 4 -9 12 -6 17 4 5 0 9 -7 10 -10 0 -10 2 0 6 6 2 9 10 6 15 -4 7 -2 8 5 4
6 -4 9 -12 6 -17z m327 3 c-7 -2 -10 -8 -6 -13 3 -5 1 -9 -5 -9 -5 0 -9 9 -8
19 1 12 6 17 16 13 10 -4 11 -7 3 -10z m1778 8 c0 -5 -2 -10 -4 -10 -3 0 -8 5
-11 10 -3 6 -1 10 4 10 6 0 11 -4 11 -10z m-2040 -10 c-8 -5 -19 -10 -25 -10
-5 0 -3 5 5 10 8 5 20 10 25 10 6 0 3 -5 -5 -10z m41 -7 c13 -16 12 -17 -3 -4
-17 13 -22 21 -14 21 2 0 10 -8 17 -17z m147 -7 c-10 -7 -14 -17 -10 -21 4 -5
2 -5 -5 -1 -7 4 -10 13 -7 21 4 8 10 12 15 9 5 -3 9 0 9 7 0 7 3 9 7 5 5 -4 0
-13 -9 -20z m1732 14 c-8 -5 -19 -10 -25 -10 -5 0 -3 5 5 10 8 5 20 10 25 10
6 0 3 -5 -5 -10z m181 -4 c5 3 9 0 9 -5 0 -6 -5 -11 -11 -11 -5 0 -7 -6 -3
-12 4 -7 3 -10 -1 -5 -5 4 -10 18 -11 30 -2 12 0 16 2 9 3 -6 10 -10 15 -6z
m93 -1 c-23 -17 -34 -19 -34 -4 0 5 4 8 9 4 5 -3 12 -1 16 5 3 5 11 10 18 10
6 0 2 -7 -9 -15z m-2086 -20 c-3 -3 -9 2 -12 12 -6 14 -5 15 5 6 7 -7 10 -15
7 -18z m1918 14 c3 -6 2 -15 -4 -21 -6 -6 -12 -6 -17 3 -5 8 -4 10 3 5 7 -4
12 -3 12 3 0 5 -6 12 -12 14 -10 4 -10 6 -1 6 6 1 15 -4 19 -10z m-1856 -53
c0 -6 -7 -1 -15 10 -8 10 -15 23 -15 28 0 6 7 1 15 -10 8 -10 15 -23 15 -28z
m1806 32 c5 -7 3 -8 -6 -3 -9 5 -10 1 -6 -16 6 -20 5 -21 -4 -6 -6 9 -8 22 -5
27 8 13 12 13 21 -2z m114 -32 c0 -6 -7 -1 -15 10 -8 10 -15 23 -15 28 0 6 7
1 15 -10 8 -10 15 -23 15 -28z m126 32 c5 -7 3 -8 -6 -3 -9 5 -10 1 -6 -16 6
-20 5 -21 -4 -6 -6 9 -8 22 -5 27 8 13 12 13 21 -2z m-2339 -25 c1 -22 -1 -24
-8 -10 -6 9 -7 22 -4 27 9 14 10 13 12 -17z m167 11 c9 -24 2 -26 -12 -4 -7
11 -8 20 -3 20 5 0 12 -7 15 -16z m246 -19 c0 -5 -5 -3 -10 5 -5 8 -10 20 -10
25 0 6 5 3 10 -5 5 -8 10 -19 10 -25z m1546 15 c5 1 10 -4 12 -12 3 -11 2 -11
-6 0 -5 8 -13 13 -18 12 -5 -1 -10 4 -12 12 -3 11 -2 11 6 0 5 -8 13 -13 18
-12z m-1908 -11 c3 -12 2 -12 -6 0 -6 8 -15 10 -22 6 -9 -5 -11 -4 -6 4 10 15
28 10 34 -10z m35 3 c-10 -10 -20 -17 -22 -16 -6 5 20 34 30 34 5 0 1 -8 -8
-18z m113 3 c-1 -8 -5 -17 -8 -21 -5 -4 -4 16 1 34 3 9 9 -1 7 -13z m127 -3
c-10 -10 -20 -17 -22 -16 -6 5 20 34 30 34 5 0 1 -8 -8 -18z m1577 6 c0 -11
-12 -10 -30 2 -12 7 -10 9 8 7 12 0 22 -5 22 -9z m103 -6 c-10 -10 -20 -17
-22 -16 -6 5 20 34 30 34 5 0 1 -8 -8 -18z m108 -9 c-12 -20 -14 -14 -5 12 4
9 9 14 11 11 3 -2 0 -13 -6 -23z m49 7 c-24 -15 -36 -11 -14 4 10 8 21 12 24
10 2 -3 -2 -9 -10 -14z m83 2 c-10 -10 -20 -17 -22 -16 -6 5 20 34 30 34 5 0
1 -8 -8 -18z m-2108 -1 c3 -5 0 -13 -6 -17 -8 -5 -9 -3 -4 6 6 9 1 10 -16 5
-19 -5 -21 -4 -9 4 19 13 27 14 35 2z m120 0 c3 -5 0 -13 -6 -17 -8 -5 -9 -3
-4 6 6 9 1 10 -16 5 -19 -5 -21 -4 -9 4 19 13 27 14 35 2z m105 -1 c-8 -5 -19
-10 -25 -10 -5 0 -3 5 5 10 8 5 20 10 25 10 6 0 3 -5 -5 -10z m75 1 c3 -5 2
-12 -3 -15 -5 -3 -9 1 -9 9 0 17 3 19 12 6z m1605 -1 c-8 -5 -19 -10 -25 -10
-5 0 -3 5 5 10 8 5 20 10 25 10 6 0 3 -5 -5 -10z m240 0 c-8 -5 -19 -10 -25
-10 -5 0 -3 5 5 10 8 5 20 10 25 10 6 0 3 -5 -5 -10z m-349 -23 c-15 -15 -14
-30 1 -21 7 4 8 3 4 -5 -4 -6 -12 -9 -17 -6 -12 8 -11 35 2 35 5 0 7 5 3 12
-5 7 -3 8 5 3 9 -5 10 -10 2 -18z m-1902 -10 c12 -15 12 -17 -3 -11 -9 3 -16
13 -16 22 0 8 1 13 3 11 1 -2 9 -12 16 -22z m1851 18 c0 -2 -13 -11 -30 -20
-38 -19 -40 -11 -2 9 31 17 32 18 32 11z m-1784 -20 c-1 -8 -6 -18 -11 -22 -4
-4 -5 -2 -1 5 4 6 2 12 -4 12 -6 0 -8 5 -5 10 9 15 24 12 21 -5z m64 11 c0 -3
-4 -8 -10 -11 -5 -3 -10 -1 -10 4 0 6 5 11 10 11 6 0 10 -2 10 -4z m60 0 c0
-3 -4 -8 -10 -11 -5 -3 -10 -1 -10 4 0 6 5 11 10 11 6 0 10 -2 10 -4z m1758
-21 c-3 -3 -9 2 -12 12 -6 14 -5 15 5 6 7 -7 10 -15 7 -18z m58 6 c1 -6 0 -7
-3 -1 -2 5 -9 8 -13 5 -5 -3 -11 -1 -14 4 -4 5 2 8 11 7 9 -2 18 -8 19 -15z
m60 0 c1 -6 0 -7 -3 -1 -2 5 -9 8 -13 5 -5 -3 -11 -1 -14 4 -4 5 2 8 11 7 9
-2 18 -8 19 -15z m60 0 c1 -6 0 -7 -3 -1 -2 5 -9 8 -13 5 -5 -3 -11 -1 -14 4
-4 5 2 8 11 7 9 -2 18 -8 19 -15z m61 2 c2 -6 -1 -14 -6 -18 -7 -4 -8 0 -4 11
4 11 3 15 -5 10 -6 -3 -13 -2 -16 3 -4 5 2 8 11 7 9 -2 19 -8 20 -13z m57 0
c4 -11 1 -11 -14 -3 -24 13 -25 17 -5 17 8 0 16 -6 19 -14z m56 5 c0 -4 -4 -8
-9 -8 -6 0 -12 4 -15 8 -3 5 1 9 9 9 8 0 15 -4 15 -9z m-1907 -19 c-8 -8 -13
-7 -18 2 -5 8 -4 10 3 5 7 -4 12 -2 12 5 0 7 3 9 7 6 4 -4 2 -12 -4 -18z
m-426 4 c-4 -3 -1 -13 6 -22 11 -14 10 -14 -5 -2 -21 15 -23 31 -6 31 6 0 8
-3 5 -7z m257 -32 c-5 -6 -34 20 -34 30 0 5 8 1 18 -8 10 -10 17 -20 16 -22z
m140 -1 c-5 -5 -10 3 -11 18 -1 22 0 24 9 8 6 -10 6 -22 2 -26z m126 5 c0 -5
-5 -3 -10 5 -5 8 -10 20 -10 25 0 6 5 3 10 -5 5 -8 10 -19 10 -25z m1360 28
c-1 -13 -30 -48 -30 -36 0 7 5 15 10 18 6 4 8 11 5 16 -4 5 -1 9 4 9 6 0 11
-3 11 -7z m71 -20 c-12 -20 -14 -14 -5 12 4 9 9 14 11 11 3 -2 0 -13 -6 -23z
m155 -1 c-17 -16 -18 -16 -5 5 7 12 15 20 18 17 3 -2 -3 -12 -13 -22z m-1954
-18 c-9 -16 -10 -14 -9 8 1 15 6 23 11 18 4 -4 4 -16 -2 -26z m452 14 c-5 -7
-9 -19 -10 -26 -2 -8 -5 -17 -8 -20 -8 -7 -2 27 9 51 4 10 10 16 12 13 3 -3 1
-11 -3 -18z m1473 -5 c1 -22 -1 -24 -8 -10 -6 9 -7 22 -4 27 9 14 10 13 12
-17z m-1952 7 c3 -6 -1 -7 -9 -4 -10 4 -16 1 -16 -7 0 -7 -3 -10 -6 -6 -7 7 4
27 16 27 5 0 12 -4 15 -10z m310 -20 c-9 -16 -18 -30 -21 -30 -2 0 2 14 11 30
9 17 18 30 21 30 2 0 -2 -13 -11 -30z m59 22 c3 -5 -1 -9 -9 -9 -8 0 -12 4 -9
9 3 4 7 8 9 8 2 0 6 -4 9 -8z m66 -12 c-24 -15 -36 -11 -14 4 10 8 21 12 24
10 2 -3 -2 -9 -10 -14z m1203 13 c3 -5 -6 -9 -20 -10 -19 -1 -22 1 -12 8 17
11 26 11 32 2z m163 -20 c-6 -6 -36 9 -36 18 0 5 9 4 20 -3 10 -7 18 -14 16
-15z m54 17 c0 -5 -5 -10 -11 -10 -5 0 -7 5 -4 10 3 6 8 10 11 10 2 0 4 -4 4
-10z m263 3 c3 -5 -6 -9 -20 -10 -19 -1 -22 1 -12 8 17 11 26 11 32 2z m87 -5
c0 -4 -11 -7 -25 -6 -33 3 -33 16 0 14 14 0 25 -4 25 -8z m-2295 -20 c-9 -6
-19 -7 -22 -4 -4 3 -1 6 6 6 7 0 9 4 6 10 -4 6 1 7 11 3 15 -6 15 -7 -1 -15z
m42 7 c0 -8 -4 -12 -9 -9 -5 3 -6 10 -3 15 9 13 12 11 12 -6z m135 1 c7 4 8 2
4 -5 -4 -6 -12 -9 -17 -6 -5 4 -9 0 -10 -7 0 -10 -2 -10 -6 0 -2 6 -10 9 -15
6 -7 -4 -8 -2 -4 5 4 6 12 9 17 6 5 -4 9 0 10 7 0 10 2 10 6 0 2 -6 10 -9 15
-6z m123 5 c3 -5 0 -13 -6 -17 -8 -5 -9 -3 -4 6 6 9 1 10 -16 5 -19 -5 -21 -4
-9 4 19 13 27 14 35 2z m1340 0 c3 -5 2 -12 -3 -15 -5 -3 -9 1 -9 9 0 17 3 19
12 6z m120 -13 c-9 -6 -19 -7 -22 -4 -4 3 -1 6 6 6 7 0 9 4 6 10 -4 6 1 7 11
3 15 -6 15 -7 -1 -15z m42 7 c0 -8 -4 -12 -9 -9 -5 3 -6 10 -3 15 9 13 12 11
12 -6z m203 0 c5 3 12 0 16 -6 4 -8 3 -9 -4 -5 -7 4 -12 1 -13 -6 0 -10 -2
-10 -6 0 -2 6 -9 10 -13 7 -5 -3 -12 0 -16 6 -4 8 -3 9 4 5 7 -4 12 -1 13 6 0
10 2 10 6 0 2 -6 9 -10 13 -7z m120 4 c12 -8 10 -9 -9 -4 -17 5 -22 4 -16 -5
5 -9 4 -11 -4 -6 -6 4 -9 12 -6 17 8 12 16 11 35 -2z m-440 -9 c8 -5 11 -10 5
-10 -5 0 -17 5 -25 10 -8 5 -10 10 -5 10 6 0 17 -5 25 -10z m485 -8 c-3 -3
-11 0 -18 7 -9 10 -8 11 6 5 10 -3 15 -9 12 -12z m-2045 -30 c0 -1 -9 2 -20 8
-11 6 -20 15 -20 20 0 6 9 2 20 -7 11 -10 20 -19 20 -21z m74 23 c-10 -8 -23
-15 -28 -15 -6 0 -1 7 10 15 10 8 23 15 28 15 6 0 1 -7 -10 -15z m147 0 c5 4
6 -2 2 -11 -4 -11 -8 -13 -11 -6 -2 7 -8 10 -12 7 -5 -3 -12 0 -16 6 -4 8 -3
9 4 5 7 -4 12 -1 13 6 0 10 2 10 6 0 2 -6 9 -10 14 -7z m100 6 c-8 -5 -10 -14
-6 -22 6 -11 5 -11 -5 -2 -14 12 -6 33 13 33 8 0 7 -3 -2 -9z m143 -10 c-10
-10 -21 -16 -24 -14 -3 3 4 11 14 19 28 20 33 17 10 -5z m86 5 c-1 -5 4 -13
12 -18 11 -8 11 -9 0 -6 -8 2 -13 7 -12 12 1 5 -4 13 -12 18 -11 8 -11 9 0 6
8 -2 13 -7 12 -12z m68 -17 c-3 -8 -7 -3 -11 10 -4 17 -3 21 5 13 5 -5 8 -16
6 -23z m1217 11 c0 -7 -7 -15 -15 -17 -13 -4 -13 -3 0 6 13 10 13 12 0 22 -13
9 -13 10 0 6 8 -2 15 -10 15 -17z m96 -7 c-12 -20 -14 -14 -5 12 4 9 9 14 11
11 3 -2 0 -13 -6 -23z m163 -2 c-2 -3 -12 3 -22 13 -16 17 -16 18 5 5 12 -7
20 -15 17 -18z m26 19 c0 -5 -7 -7 -15 -4 -8 4 -15 8 -15 10 0 2 7 4 15 4 8 0
15 -4 15 -10z m-2214 -11 c3 -6 2 -15 -4 -21 -6 -6 -12 -6 -17 3 -5 8 -4 10 3
5 7 -4 12 -3 12 3 0 5 -6 12 -12 14 -10 4 -10 6 -1 6 6 1 15 -4 19 -10z m234
1 c0 -5 -2 -10 -4 -10 -3 0 -8 5 -11 10 -3 6 -1 10 4 10 6 0 11 -4 11 -10z
m244 -2 c-3 -4 -9 -8 -15 -8 -5 0 -9 4 -9 8 0 5 7 9 15 9 8 0 12 -4 9 -9z
m129 -5 c-4 -10 -2 -14 5 -9 6 3 14 1 18 -5 4 -8 3 -9 -4 -5 -7 4 -12 1 -13
-6 0 -10 -2 -10 -6 0 -2 6 -9 10 -13 7 -5 -3 -12 0 -16 6 -4 7 -3 9 3 6 6 -4
13 0 17 8 3 8 8 15 10 15 3 0 2 -7 -1 -17z m176 3 c9 -11 9 -16 0 -22 -8 -4
-9 -3 -5 4 4 7 2 12 -3 12 -6 0 -11 5 -11 10 0 14 5 13 19 -4z m665 -1 c11 -8
16 -15 10 -15 -5 0 -18 7 -28 15 -11 8 -16 15 -10 15 5 0 18 -7 28 -15z m176
5 c-8 -5 -19 -10 -25 -10 -5 0 -3 5 5 10 8 5 20 10 25 10 6 0 3 -5 -5 -10z
m136 -1 c3 -6 2 -15 -4 -21 -6 -6 -12 -6 -17 3 -5 8 -4 10 3 5 7 -4 12 -3 12
3 0 5 -6 12 -12 14 -10 4 -10 6 -1 6 6 1 15 -4 19 -10z m54 4 c0 -5 -5 -15
-10 -23 -7 -12 -9 -10 -7 8 1 19 17 33 17 15z m60 -5 c0 -4 -4 -8 -9 -8 -6 0
-12 4 -15 8 -3 5 1 9 9 9 8 0 15 -4 15 -9z m230 2 c-8 -5 -19 -10 -25 -10 -5
0 -3 5 5 10 8 5 20 10 25 10 6 0 3 -5 -5 -10z m-1892 -25 c-3 -3 -9 2 -12 12
-6 14 -5 15 5 6 7 -7 10 -15 7 -18z m637 15 c4 -6 -1 -7 -11 -3 -13 5 -15 3
-9 -7 5 -9 4 -11 -4 -6 -6 4 -9 12 -6 17 8 12 22 12 30 -1z m585 -15 c0 -2 -7
-1 -17 2 -11 4 -14 3 -9 -5 5 -8 1 -10 -10 -5 -11 4 -13 8 -6 11 7 2 9 8 6 14
-4 6 2 5 15 -1 11 -7 21 -14 21 -16z m-1385 6 c-3 -5 -1 -12 5 -16 5 -3 10
-11 10 -18 0 -6 -7 -2 -15 9 -17 23 -19 34 -4 34 5 0 8 -4 4 -9z m275 -16 c-7
-8 -16 -15 -21 -15 -5 0 -1 8 9 18 20 22 31 19 12 -3z m130 15 c8 -5 11 -10 5
-10 -5 0 -17 5 -25 10 -8 5 -10 10 -5 10 6 0 17 -5 25 -10z m37 -5 c0 -8 -4
-12 -9 -9 -5 3 -6 10 -3 15 9 13 12 11 12 -6z m77 -25 c-5 -5 -10 3 -11 18 -1
22 0 24 9 8 6 -10 6 -22 2 -26z m126 30 c0 -5 -2 -10 -4 -10 -3 0 -8 5 -11 10
-3 6 -1 10 4 10 6 0 11 -4 11 -10z m235 -10 c17 -18 17 -20 2 -14 -9 3 -17 10
-17 16 0 5 -5 6 -12 2 -7 -4 -8 -3 -4 4 9 16 10 15 31 -8z m39 12 c3 -5 -1 -9
-9 -9 -8 0 -12 4 -9 9 3 4 7 8 9 8 2 0 6 -4 9 -8z m296 -7 c0 -2 -6 -5 -13 -8
-8 -3 -14 1 -14 8 0 7 6 11 14 8 7 -3 13 -6 13 -8z m20 -10 c-7 -8 -16 -15
-21 -15 -5 0 -1 8 9 18 20 22 31 19 12 -3z m104 -14 c-5 -6 -34 20 -34 30 0 5
8 1 18 -8 10 -10 17 -20 16 -22z m183 24 c0 -8 -4 -12 -9 -9 -4 3 -8 9 -8 15
0 5 4 9 8 9 5 0 9 -7 9 -15z m57 3 c-5 -8 -2 -9 10 -5 10 4 15 3 11 -3 -3 -6
-1 -10 6 -10 7 0 10 -3 7 -6 -10 -9 -49 16 -43 27 4 5 8 9 11 9 3 0 2 -5 -2
-12z m82 0 c5 -7 3 -8 -6 -3 -9 5 -10 1 -6 -16 6 -20 5 -21 -4 -6 -6 9 -8 22
-5 27 8 13 12 13 21 -2z m118 1 c-4 -8 1 -9 17 -5 20 6 21 5 6 -4 -19 -12 -41
-4 -32 11 4 5 8 9 11 9 3 0 2 -5 -2 -11z m150 -12 c4 4 4 -1 0 -11 -7 -17 -8
-17 -19 3 -6 12 -15 18 -20 14 -4 -4 -5 -2 0 6 7 12 10 11 20 -2 7 -9 15 -14
19 -10z m77 3 c6 0 7 5 3 12 -5 7 -3 8 5 3 9 -5 9 -11 3 -17 -12 -12 -32 -2
-31 15 0 9 2 9 6 0 2 -7 9 -13 14 -13z m100 -17 c-11 -16 -11 -15 -5 6 4 17 3
21 -6 16 -9 -6 -11 -4 -5 4 5 9 11 9 17 3 7 -7 6 -16 -1 -29z m-1977 11 c9
-24 2 -26 -12 -4 -7 11 -8 20 -3 20 5 0 12 -7 15 -16z m58 -26 c-6 -6 -12 -6
-17 3 -6 8 -4 10 5 4 9 -5 10 -1 6 16 -6 21 -6 22 5 6 7 -13 8 -22 1 -29z m53
32 c-3 -5 -12 -10 -18 -10 -7 0 -6 4 3 10 19 12 23 12 15 0z m246 -5 c11 6 11
5 2 -5 -12 -14 -33 -6 -33 13 0 8 3 7 9 -2 5 -8 14 -10 22 -6z m556 9 c-3 -3
-12 -4 -19 -1 -8 3 -5 6 6 6 11 1 17 -2 13 -5z m78 -4 c3 -5 1 -10 -4 -10 -6
0 -11 5 -11 10 0 6 2 10 4 10 3 0 8 -4 11 -10z m45 -5 c0 -8 -4 -15 -10 -15
-5 0 -7 7 -4 15 4 8 8 15 10 15 2 0 4 -7 4 -15z m121 5 c9 13 10 13 6 0 -2 -8
-10 -15 -17 -15 -7 0 -15 7 -17 15 -4 13 -3 13 6 0 10 -13 12 -13 22 0z m204
-11 c-5 -16 -4 -19 5 -14 9 6 11 4 5 -4 -10 -18 -27 2 -19 22 9 25 17 21 9 -4z
m69 -19 c-6 -5 -24 21 -24 34 0 6 6 1 14 -10 8 -10 12 -21 10 -24z m490 16
c-3 -9 -10 -16 -15 -16 -5 0 -4 9 3 20 14 22 21 20 12 -4z m-2074 6 c0 -5 -12
-14 -27 -21 l-28 -12 25 21 c29 22 30 23 30 12z m340 -12 c-12 -23 -16 -24
-26 -8 -4 6 -3 8 3 5 6 -4 13 0 17 8 3 8 8 15 11 15 3 0 1 -9 -5 -20z m56 8
c-10 -6 -22 -6 -26 -2 -5 5 3 10 18 11 22 1 24 0 8 -9z m254 8 c0 -3 -4 -8
-10 -11 -5 -3 -10 -1 -10 4 0 6 5 11 10 11 6 0 10 -2 10 -4z m44 -4 c3 -5 -1
-9 -9 -9 -8 0 -12 4 -9 9 3 4 7 8 9 8 2 0 6 -4 9 -8z m49 -12 c9 -11 13 -20 7
-20 -5 0 -14 9 -20 20 -6 11 -9 20 -8 20 2 0 11 -9 21 -20z m55 12 c8 -6 2 -9
-18 -9 -20 0 -26 3 -18 9 7 4 15 8 18 8 3 0 11 -4 18 -8z m62 -7 c19 -22 8
-25 -12 -3 -10 10 -14 18 -9 18 5 0 14 -7 21 -15z m136 -4 c1 -6 0 -7 -3 -1
-2 5 -9 8 -13 5 -5 -3 -11 -1 -14 4 -4 5 2 8 11 7 9 -2 18 -8 19 -15z m444 9
c-8 -5 -19 -10 -25 -10 -5 0 -3 5 5 10 8 5 20 10 25 10 6 0 3 -5 -5 -10z m261
-17 c-12 -20 -14 -14 -5 12 4 9 9 14 11 11 3 -2 0 -13 -6 -23z m49 7 c-24 -15
-36 -11 -14 4 10 8 21 12 24 10 2 -3 -2 -9 -10 -14z m150 5 c19 -22 8 -25 -12
-3 -10 10 -14 18 -9 18 5 0 14 -7 21 -15z m104 7 c3 -5 -1 -9 -9 -9 -8 0 -12
4 -9 9 3 4 7 8 9 8 2 0 6 -4 9 -8z m-1939 -11 c3 -5 2 -12 -3 -15 -5 -3 -9 1
-9 9 0 17 3 19 12 6z m60 0 c3 -5 0 -13 -6 -17 -8 -5 -9 -3 -4 6 6 9 1 10 -16
5 -19 -5 -21 -4 -9 4 19 13 27 14 35 2z m898 -6 c-3 -9 -8 -14 -10 -11 -3 3
-2 9 2 15 9 16 15 13 8 -4z m47 5 c-8 -5 -19 -10 -25 -10 -5 0 -3 5 5 10 8 5
20 10 25 10 6 0 3 -5 -5 -10z m-665 -10 c-3 -5 -1 -10 4 -10 6 0 11 -5 11 -11
0 -5 -4 -8 -9 -5 -5 4 -12 0 -15 -6 -2 -7 -3 -2 -1 12 4 31 4 30 11 30 3 0 2
-4 -1 -10z m265 -25 c0 -5 -5 -3 -10 5 -5 8 -10 20 -10 25 0 6 5 3 10 -5 5 -8
10 -19 10 -25z m157 21 c0 -8 -6 -12 -15 -9 -11 5 -11 7 0 14 7 5 13 9 14 9 0
0 1 -6 1 -14z m283 7 c0 -5 -5 -15 -10 -23 -7 -12 -9 -10 -7 8 1 19 17 33 17
15z m165 -20 c-11 -7 -23 -13 -28 -13 -4 0 -5 -5 -1 -12 5 -7 3 -8 -6 -3 -10
6 -9 11 5 22 11 7 23 13 28 13 4 0 5 5 1 12 -5 7 -3 8 6 3 10 -6 9 -11 -5 -22z
m52 20 c-4 -3 1 -12 11 -20 15 -13 15 -13 -6 -3 -19 9 -23 30 -5 30 4 0 3 -3
0 -7z m463 0 c-1 -13 -30 -48 -30 -36 0 7 5 15 10 18 6 4 8 11 5 16 -4 5 -1 9
4 9 6 0 11 -3 11 -7z m311 -20 c-12 -20 -14 -14 -5 12 4 9 9 14 11 11 3 -2 0
-13 -6 -23z m-1913 -8 c-3 -3 -9 2 -12 12 -6 14 -5 15 5 6 7 -7 10 -15 7 -18z
m117 5 c0 -7 -7 -15 -15 -17 -13 -4 -13 -3 0 6 13 10 13 12 0 22 -13 9 -13 10
0 6 8 -2 15 -10 15 -17z m175 -2 c0 -5 -4 -7 -9 -4 -5 4 -11 0 -14 -6 -3 -7
-4 -3 -4 8 1 21 27 23 27 2z m26 -10 c-9 -12 -16 -19 -16 -15 0 11 24 47 28
42 2 -2 -3 -14 -12 -27z m69 13 c-3 -6 -11 -11 -16 -11 -5 0 -4 6 3 14 14 16
24 13 13 -3z m60 0 c-3 -6 -11 -11 -16 -11 -5 0 -4 6 3 14 14 16 24 13 13 -3z
m70 9 c4 -6 11 -8 16 -5 5 4 9 1 9 -4 0 -15 -11 -13 -34 4 -11 8 -15 15 -9 15
7 0 15 -5 18 -10z m155 -25 c0 -5 -5 -3 -10 5 -5 8 -10 20 -10 25 0 6 5 3 10
-5 5 -8 10 -19 10 -25z m60 0 c0 -5 -5 -3 -10 5 -5 8 -10 20 -10 25 0 6 5 3
10 -5 5 -8 10 -19 10 -25z m52 -7 c-6 -6 -12 -6 -17 3 -6 8 -4 10 5 4 9 -5 10
-1 6 16 -6 21 -6 22 5 6 7 -13 8 -22 1 -29z m245 28 c-10 -8 -17 -16 -15 -19
2 -3 -1 -9 -6 -14 -5 -5 -6 -3 -2 5 4 7 2 12 -6 12 -7 1 -2 7 12 15 32 18 40
18 17 1z m193 -12 c0 -2 -9 0 -20 6 -11 6 -20 13 -20 16 0 2 9 0 20 -6 11 -6
20 -13 20 -16z m21 -1 c-12 -20 -14 -14 -5 12 4 9 9 14 11 11 3 -2 0 -13 -6
-23z m396 8 c-1 -19 -27 -18 -27 1 0 5 5 6 10 3 6 -3 10 -1 10 4 0 6 2 11 4
11 3 0 4 -9 3 -19z m60 -1 c-2 -11 -7 -23 -12 -27 -4 -5 -5 -2 -1 5 4 6 2 12
-3 12 -6 0 -11 5 -11 11 0 5 5 7 10 4 6 -3 10 -1 10 4 0 6 2 11 5 11 3 0 4 -9
2 -20z m103 10 c-13 -9 -13 -11 0 -20 9 -6 10 -10 3 -10 -6 0 -15 5 -18 10 -8
13 3 30 18 30 7 0 6 -4 -3 -10z m-1960 -15 c0 -8 -4 -15 -8 -15 -5 0 -9 7 -9
15 0 8 4 15 9 15 4 0 8 -7 8 -15z m59 -2 c0 -11 -3 -13 -6 -5 -2 6 -10 9 -15
6 -7 -4 -8 -2 -4 4 11 18 26 14 25 -5z m71 7 c8 -5 11 -10 5 -10 -5 0 -17 5
-25 10 -8 5 -10 10 -5 10 6 0 17 -5 25 -10z m90 0 c0 -5 -4 -10 -10 -10 -5 0
-10 5 -10 10 0 6 5 10 10 10 6 0 10 -4 10 -10z m110 0 c0 -5 -2 -10 -4 -10 -3
0 -8 5 -11 10 -3 6 -1 10 4 10 6 0 11 -4 11 -10z m680 1 c0 -5 -7 -12 -16 -15
-14 -5 -15 -4 -4 9 14 17 20 19 20 6z m112 2 c-6 -3 -10 -9 -6 -14 3 -5 1 -9
-4 -9 -21 0 -19 26 2 27 11 0 15 -1 8 -4z m429 -10 c13 -16 12 -17 -3 -4 -17
13 -22 21 -14 21 2 0 10 -8 17 -17z m72 2 c-3 -9 -8 -14 -10 -11 -3 3 -2 9 2
15 9 16 15 13 8 -4z m60 0 c-3 -9 -8 -14 -10 -11 -3 3 -2 9 2 15 9 16 15 13 8
-4z m222 5 c3 -5 1 -10 -4 -10 -6 0 -11 5 -11 10 0 6 2 10 4 10 3 0 8 -4 11
-10z m115 0 c0 -5 -4 -10 -10 -10 -5 0 -10 5 -10 10 0 6 5 10 10 10 6 0 10 -4
10 -10z m95 1 c-9 -8 -36 -10 -30 -2 2 4 11 8 20 8 8 0 13 -3 10 -6z m-1360
-11 c-3 -5 -12 -10 -18 -10 -7 0 -6 4 3 10 19 12 23 12 15 0z m525 0 c0 -5 -5
-10 -11 -10 -5 0 -7 5 -4 10 3 6 8 10 11 10 2 0 4 -4 4 -10z m195 0 c-3 -5
-12 -10 -18 -10 -7 0 -6 4 3 10 19 12 23 12 15 0z m122 -4 c0 -8 -6 -12 -15
-9 -11 5 -11 7 0 14 7 5 13 9 14 9 0 0 1 -6 1 -14z m-1482 -5 c3 -5 2 -12 -3
-15 -5 -3 -9 1 -9 9 0 17 3 19 12 6z m259 -30 c-5 -6 -34 20 -34 30 0 5 8 1
18 -8 10 -10 17 -20 16 -22z m120 28 c-4 -8 1 -9 17 -5 20 6 21 5 6 -4 -19
-12 -41 -4 -32 11 4 5 8 9 11 9 3 0 2 -5 -2 -11z m62 -4 c-1 -8 -5 -17 -8 -21
-5 -4 -4 16 1 34 3 9 9 -1 7 -13z m61 8 c-4 -3 1 -12 11 -20 15 -13 15 -13 -6
-3 -19 9 -23 30 -5 30 4 0 3 -3 0 -7z m297 -33 c-5 -5 -10 3 -11 18 -1 22 0
24 9 8 6 -10 6 -22 2 -26z m432 12 c-17 -16 -18 -16 -5 5 7 12 15 20 18 17 3
-2 -3 -12 -13 -22z m176 21 c-6 -3 -10 -9 -6 -14 3 -5 0 -9 -5 -9 -6 0 -11 5
-11 11 0 5 -5 7 -12 3 -6 -4 -8 -3 -5 2 3 5 16 10 29 11 13 0 17 -1 10 -4z
m108 -18 c-7 -8 -16 -15 -21 -15 -5 0 -1 8 9 18 20 22 31 19 12 -3z m-1593
-12 c1 -22 -1 -24 -8 -10 -6 9 -7 22 -4 27 9 14 10 13 12 -17z m51 15 c-2 -6
-12 -12 -21 -14 -9 -1 -15 2 -11 7 3 5 10 7 15 4 5 -4 9 -1 9 4 0 6 3 11 6 11
3 0 4 -5 2 -12z m100 -8 c-7 -10 -14 -18 -15 -16 -6 6 9 36 18 36 5 0 4 -9 -3
-20z m147 -13 c4 4 5 2 0 -6 -7 -12 -10 -11 -20 2 -7 9 -15 14 -19 10 -4 -4
-4 1 0 11 7 17 8 17 19 -3 6 -12 15 -18 20 -14z m259 -7 c-6 -5 -24 21 -24 34
0 6 6 1 14 -10 8 -10 12 -21 10 -24z m74 20 c-7 -10 -14 -18 -15 -16 -6 6 9
36 18 36 5 0 4 -9 -3 -20z m126 11 c3 -5 -1 -11 -9 -14 -9 -4 -12 -1 -8 9 6
16 10 17 17 5z m278 -27 c-9 -16 -10 -14 -9 8 1 15 6 23 11 18 4 -4 4 -16 -2
-26z m245 9 c1 -22 -1 -24 -8 -10 -6 9 -7 22 -4 27 9 14 10 13 12 -17z m400 0
c1 -22 -1 -24 -8 -10 -6 9 -7 22 -4 27 9 14 10 13 12 -17z m206 14 c3 -8 -1
-14 -8 -14 -7 0 -11 6 -8 14 3 7 6 13 8 13 2 0 5 -6 8 -13z m121 -3 c9 -24 2
-26 -12 -4 -7 11 -8 20 -3 20 5 0 12 -7 15 -16z m-1774 0 c0 -8 -19 -13 -24
-6 -3 5 1 9 9 9 8 0 15 -2 15 -3z m480 0 c0 -8 -19 -13 -24 -6 -3 5 1 9 9 9 8
0 15 -2 15 -3z m298 -15 c3 -11 2 -11 -7 1 -10 13 -12 13 -21 0 -5 -8 -10 -10
-10 -4 0 27 31 30 38 3z m102 6 c19 -22 8 -25 -12 -3 -10 10 -14 18 -9 18 5 0
14 -7 21 -15z m58 -6 c3 -11 2 -11 -7 1 -10 13 -12 13 -21 0 -5 -8 -10 -10
-10 -4 0 27 31 30 38 3z m262 6 c19 -22 8 -25 -12 -3 -10 10 -14 18 -9 18 5 0
14 -7 21 -15z m96 3 c-10 -6 -22 -6 -26 -2 -5 5 3 10 18 11 22 1 24 0 8 -9z
m202 -9 c3 -12 2 -12 -6 0 -6 8 -15 10 -22 6 -9 -5 -11 -4 -6 4 10 15 28 10
34 -10z m115 14 c3 -5 -6 -9 -20 -10 -19 -1 -22 1 -12 8 17 11 26 11 32 2z
m97 1 c0 -8 -19 -13 -24 -6 -3 5 1 9 9 9 8 0 15 -2 15 -3z m96 -9 c-1 -8 -5
-17 -8 -21 -5 -4 -4 16 1 34 3 9 9 -1 7 -13z m-1840 -13 c1 -7 0 -8 -3 -2 -2
5 -9 10 -14 10 -6 0 -7 -5 -3 -12 4 -7 3 -8 -5 -4 -14 9 -4 29 12 23 6 -2 12
-9 13 -15z m219 9 c3 -5 0 -13 -6 -17 -8 -5 -9 -3 -4 6 6 9 1 10 -16 5 -19 -5
-21 -4 -9 4 19 13 27 14 35 2z m261 -9 c1 -7 0 -8 -3 -2 -2 5 -9 10 -14 10 -6
0 -7 -5 -3 -12 4 -7 3 -8 -5 -4 -14 9 -4 29 12 23 6 -2 12 -9 13 -15z m139 9
c3 -5 0 -13 -6 -17 -8 -5 -9 -3 -4 6 6 9 1 10 -16 5 -19 -5 -21 -4 -9 4 19 13
27 14 35 2z m142 -6 c0 -8 -4 -12 -9 -9 -5 3 -6 10 -3 15 9 13 12 11 12 -6z
m238 6 c3 -5 2 -12 -3 -15 -5 -3 -9 1 -9 9 0 17 3 19 12 6z m165 -2 c12 -8 10
-9 -9 -4 -17 5 -22 4 -16 -5 5 -9 4 -11 -4 -6 -6 4 -9 12 -6 17 8 12 16 11 35
-2z m280 -4 c5 3 12 0 16 -7 4 -7 4 -10 -1 -6 -4 4 -14 0 -22 -10 -12 -16 -13
-16 -6 2 4 13 3 17 -5 12 -6 -3 -14 -1 -18 5 -4 8 -3 9 4 5 7 -4 12 -1 13 6 0
10 2 10 6 0 2 -6 9 -10 13 -7z m130 0 c0 -2 -6 -5 -13 -8 -8 -3 -14 1 -14 8 0
7 6 11 14 8 7 -3 13 -6 13 -8z m205 6 c3 -5 0 -13 -6 -17 -8 -4 -9 -3 -5 4 4
7 2 12 -3 12 -6 0 -11 -5 -11 -12 0 -6 -3 -9 -6 -5 -7 7 4 27 16 27 5 0 11 -4
15 -9z m-1544 -28 c-12 -20 -14 -14 -5 12 4 9 9 14 11 11 3 -2 0 -13 -6 -23z
m482 7 c-10 -11 -19 -20 -21 -20 -1 0 2 9 8 20 6 11 15 20 20 20 6 0 2 -9 -7
-20z m170 13 c-7 -2 -19 -2 -25 0 -7 3 -2 5 12 5 14 0 19 -2 13 -5z m174 -8
c5 -4 3 -5 -4 -2 -6 4 -13 3 -15 -2 -1 -5 -9 -3 -16 5 -11 12 -9 13 7 11 11
-2 24 -7 28 -12z m277 3 c-5 -8 -1 -9 12 -4 14 5 16 4 7 -5 -13 -13 -37 -3
-28 12 4 5 8 9 11 9 3 0 2 -5 -2 -12z m271 -6 c-3 -3 -11 0 -18 7 -9 10 -8 11
6 5 10 -3 15 -9 12 -12z m-1737 -12 c-7 -11 -15 -15 -17 -9 -2 6 3 15 10 20
20 12 21 11 7 -11z m143 -7 c-12 -20 -14 -14 -5 12 4 9 9 14 11 11 3 -2 0 -13
-6 -23z m109 17 c-13 -9 -13 -11 0 -20 9 -6 10 -10 3 -10 -15 0 -26 17 -18 30
3 6 12 10 18 10 7 0 6 -4 -3 -10z m164 -6 c3 -8 2 -12 -4 -9 -6 3 -10 10 -10
16 0 14 7 11 14 -7z m207 -11 c-12 -20 -14 -14 -5 12 4 9 9 14 11 11 3 -2 0
-13 -6 -23z m170 12 c5 4 6 -1 2 -10 -5 -13 -7 -14 -14 -3 -5 7 -8 18 -8 23 0
6 3 4 6 -3 2 -6 9 -10 14 -7z m430 -12 c-12 -20 -14 -14 -5 12 4 9 9 14 11 11
3 -2 0 -13 -6 -23z m131 -15 c-6 -6 -12 -6 -17 3 -6 8 -4 10 5 4 9 -5 10 -1 6
16 -6 21 -6 22 5 6 7 -13 8 -22 1 -29z m179 25 c13 -17 13 -17 -6 -3 -11 8
-22 16 -24 17 -2 2 0 3 6 3 6 0 17 -8 24 -17z m90 -6 c-10 -9 -11 -8 -5 6 3
10 9 15 12 12 3 -3 0 -11 -7 -18z m145 -6 c-4 -6 -13 -11 -19 -11 -8 0 -7 3 2
9 8 5 10 14 6 22 -6 11 -5 11 5 2 7 -6 9 -16 6 -22z m104 -6 c0 -5 -5 -3 -10
5 -5 8 -10 20 -10 25 0 6 5 3 10 -5 5 -8 10 -19 10 -25z m-1790 15 c-8 -5 -19
-10 -25 -10 -5 0 -3 5 5 10 8 5 20 10 25 10 6 0 3 -5 -5 -10z m234 2 c3 -5 -1
-9 -9 -9 -8 0 -15 4 -15 9 0 4 4 8 9 8 6 0 12 -4 15 -8z m131 -2 c-3 -5 0 -10
7 -11 10 0 10 -2 0 -6 -6 -2 -10 -9 -7 -14 4 -5 -1 -6 -10 -2 -13 5 -14 7 -3
14 7 5 9 9 5 9 -9 0 1 20 9 20 3 0 2 -4 -1 -10z m36 -7 c13 -16 12 -17 -3 -4
-10 7 -18 15 -18 17 0 8 8 3 21 -13z m79 7 c-8 -5 -19 -10 -25 -10 -5 0 -3 5
5 10 8 5 20 10 25 10 6 0 3 -5 -5 -10z m160 0 c8 -5 11 -10 5 -10 -5 0 -17 5
-25 10 -8 5 -10 10 -5 10 6 0 17 -5 25 -10z m160 0 c8 -5 11 -10 5 -10 -5 0
-17 5 -25 10 -8 5 -10 10 -5 10 6 0 17 -5 25 -10z m260 0 c-8 -5 -19 -10 -25
-10 -5 0 -3 5 5 10 8 5 20 10 25 10 6 0 3 -5 -5 -10z m160 0 c-8 -5 -19 -10
-25 -10 -5 0 -3 5 5 10 8 5 20 10 25 10 6 0 3 -5 -5 -10z m136 -6 c18 -14 18
-14 -6 -3 -31 14 -36 19 -24 19 6 0 19 -7 30 -16z m211 -4 c-1 -11 -5 -20 -9
-20 -10 0 -10 4 -2 24 8 22 13 20 11 -4z m63 12 c0 -5 -7 -9 -15 -9 -8 0 -12
4 -9 9 3 4 9 8 15 8 5 0 9 -4 9 -8z m220 -2 c0 -5 -2 -10 -4 -10 -3 0 -8 5
-11 10 -3 6 -1 10 4 10 6 0 11 -4 11 -10z m-1898 -7 c-6 -2 -9 -10 -6 -15 4
-7 2 -8 -5 -4 -13 9 -5 26 12 25 9 0 8 -2 -1 -6z m178 -8 c5 3 12 0 16 -6 4
-8 3 -9 -4 -5 -7 4 -12 1 -13 -6 0 -10 -2 -10 -6 0 -2 6 -9 10 -13 7 -5 -3
-12 0 -16 6 -4 8 -3 9 4 5 7 -4 12 -1 13 6 0 10 2 10 6 0 2 -6 9 -10 13 -7z
m474 6 c3 -5 -1 -11 -9 -15 -8 -3 -17 0 -21 6 -4 7 -3 8 4 4 7 -4 12 -2 12 3
0 13 7 14 14 2z m1139 -4 c7 3 10 4 7 0 -3 -3 -8 -5 -12 -4 -4 1 -14 -7 -23
-18 -14 -19 -15 -18 -3 9 7 15 14 23 16 17 2 -6 9 -8 15 -4z m-1721 -19 c-7
-7 -16 -6 -29 1 -16 11 -15 11 6 5 17 -4 21 -3 16 6 -6 9 -4 11 4 5 9 -5 9
-11 3 -17z m62 -18 c-5 -5 -10 3 -11 18 -1 22 0 24 9 8 6 -10 6 -22 2 -26z
m260 1 c-5 -6 -34 20 -34 30 0 5 8 1 18 -8 10 -10 17 -20 16 -22z m101 29 c3
-6 -1 -7 -9 -4 -18 7 -21 14 -7 14 6 0 13 -4 16 -10z m42 -4 c0 -8 -6 -12 -15
-9 -11 5 -11 7 0 14 7 5 13 9 14 9 0 0 1 -6 1 -14z m77 -26 c-5 -5 -10 3 -11
18 -1 22 0 24 9 8 6 -10 6 -22 2 -26z m101 30 c-3 -5 -2 -10 4 -10 5 0 12 6
14 13 4 9 6 9 6 0 1 -15 -16 -26 -29 -18 -10 6 -5 25 6 25 3 0 2 -4 -1 -10z
m114 -14 c-7 -6 -18 -17 -25 -25 -9 -12 -12 -12 -19 0 -5 8 -5 11 -1 7 10 -8
44 24 38 36 -3 5 0 6 7 1 10 -6 10 -10 0 -19z m71 15 c0 -6 -4 -12 -8 -15 -5
-3 -9 1 -9 9 0 8 4 15 9 15 4 0 8 -4 8 -9z m157 -6 c0 -8 -4 -12 -9 -9 -4 3
-8 9 -8 15 0 5 4 9 8 9 5 0 9 -7 9 -15z m58 5 c-6 -9 7 -14 27 -11 4 0 5 -6 2
-13 -5 -12 -9 -12 -24 2 -17 14 -19 32 -4 32 3 0 2 -4 -1 -10z m106 -10 c6 0
7 5 3 12 -5 7 -3 8 5 3 9 -5 9 -11 3 -17 -12 -12 -32 -2 -31 15 0 9 2 9 6 0 2
-7 9 -13 14 -13z m154 11 c-3 -5 -1 -12 5 -16 5 -3 10 -11 10 -18 0 -6 -7 -2
-15 9 -17 23 -19 34 -4 34 5 0 8 -4 4 -9z m441 -15 c0 -14 -5 -21 -9 -17 -4 4
-5 15 -1 24 9 24 12 21 10 -7z m-1516 4 c8 -5 12 -11 10 -14 -3 -2 -14 2 -24
10 -22 15 -10 19 14 4z m36 -22 c-9 -12 -16 -19 -16 -15 0 11 24 47 28 42 2
-2 -3 -14 -12 -27z m245 17 c11 6 11 5 2 -5 -12 -14 -33 -6 -33 13 0 8 3 7 9
-2 5 -8 14 -10 22 -6z m113 -25 c-6 -5 -24 21 -24 34 0 6 6 1 14 -10 8 -10 12
-21 10 -24z m170 16 c-3 -9 -10 -16 -15 -16 -5 0 -4 9 3 20 14 22 21 20 12 -4z
m58 -18 c-6 -6 -12 -6 -17 3 -6 8 -4 10 5 4 9 -5 10 -1 6 16 -6 21 -6 22 5 6
7 -13 8 -22 1 -29z m103 21 c-5 -16 -4 -19 5 -14 9 6 11 4 5 -4 -10 -18 -27 2
-19 22 9 25 17 21 9 -4z m69 -19 c-6 -5 -24 21 -24 34 0 6 6 1 14 -10 8 -10
12 -21 10 -24z m170 16 c-3 -9 -10 -16 -15 -16 -5 0 -4 9 3 20 14 22 21 20 12
-4z m240 8 c9 -24 2 -26 -12 -4 -7 11 -8 20 -3 20 5 0 12 -7 15 -16z m150 2
c-10 -8 -21 -12 -24 -10 -5 6 21 24 34 24 6 0 1 -6 -10 -14z m-1694 -6 c0 -5
-5 -10 -11 -10 -5 0 -7 5 -4 10 3 6 8 10 11 10 2 0 4 -4 4 -10z m138 -10 c-7
-10 -14 -17 -17 -15 -4 4 18 35 25 35 2 0 -1 -9 -8 -20z m125 2 c-10 -10 -20
-17 -22 -16 -6 5 20 34 30 34 5 0 1 -8 -8 -18z m28 -9 c-12 -20 -14 -14 -5 12
4 9 9 14 11 11 3 -2 0 -13 -6 -23z m215 15 c-10 -6 -22 -6 -26 -2 -5 5 3 10
18 11 22 1 24 0 8 -9z m294 2 c0 -5 -5 -10 -11 -10 -5 0 -7 5 -4 10 3 6 8 10
11 10 2 0 4 -4 4 -10z m223 3 c-7 -2 -19 -2 -25 0 -7 3 -2 5 12 5 14 0 19 -2
13 -5z m211 -1 c3 -5 -1 -9 -9 -9 -8 0 -12 4 -9 9 3 4 7 8 9 8 2 0 6 -4 9 -8z
m106 -2 c0 -5 -2 -10 -4 -10 -3 0 -8 5 -11 10 -3 6 -1 10 4 10 6 0 11 -4 11
-10z m40 -10 c-24 -15 -36 -11 -14 4 10 8 21 12 24 10 2 -3 -2 -9 -10 -14z
m196 5 c-1 -8 -5 -17 -8 -21 -5 -4 -4 16 1 34 3 9 9 -1 7 -13z m164 -20 c0 -5
-5 -3 -10 5 -5 8 -10 20 -10 25 0 6 5 3 10 -5 5 -8 10 -19 10 -25z m30 29 c0
-8 -19 -13 -24 -6 -3 5 1 9 9 9 8 0 15 -2 15 -3z m115 -3 c3 -5 2 -12 -3 -15
-5 -3 -9 1 -9 9 0 17 3 19 12 6z m-1850 -11 c-3 -5 -1 -10 6 -10 7 0 10 -3 6
-6 -9 -9 -28 6 -22 17 4 5 8 9 11 9 3 0 2 -4 -1 -10z m1420 1 c3 -5 2 -12 -3
-15 -5 -3 -9 1 -9 9 0 17 3 19 12 6z m60 0 c3 -5 0 -13 -6 -17 -8 -5 -9 -3 -4
6 6 9 1 10 -16 5 -19 -5 -21 -4 -9 4 19 13 27 14 35 2z m120 0 c3 -5 0 -13 -6
-17 -8 -5 -9 -3 -4 6 6 9 1 10 -16 5 -19 -5 -21 -4 -9 4 19 13 27 14 35 2z
m-1305 -31 c0 -23 -16 -35 -26 -19 -4 8 -3 9 4 5 8 -5 12 1 12 14 0 13 -4 19
-12 14 -7 -4 -8 -3 -4 5 10 16 26 4 26 -19z m65 20 c-3 -5 -2 -10 3 -10 6 0
12 -7 16 -15 7 -19 1 -19 -18 1 -14 14 -14 34 0 34 3 0 2 -4 -1 -10z m120 0
c-3 -5 -2 -10 3 -10 6 0 12 -7 16 -15 7 -19 1 -19 -18 1 -14 14 -14 34 0 34 3
0 2 -4 -1 -10z m1136 -17 c-12 -20 -14 -14 -5 12 4 9 9 14 11 11 3 -2 0 -13
-6 -23z m65 15 c5 -7 3 -8 -6 -3 -10 6 -12 4 -6 -11 5 -14 4 -16 -5 -7 -6 6
-8 16 -5 22 9 14 13 14 22 -1z m120 0 c4 -6 3 -8 -3 -5 -6 4 -13 0 -17 -8 -3
-8 -10 -15 -16 -15 -5 0 -2 9 7 20 20 23 20 23 29 8z m-1730 -18 c5 1 10 -4
12 -12 3 -11 2 -11 -6 0 -5 8 -13 13 -18 12 -5 -1 -10 4 -12 12 -3 11 -2 11 6
0 5 -8 13 -13 18 -12z m41 -12 c-3 -7 -5 -2 -5 12 0 14 2 19 5 13 2 -7 2 -19
0 -25z m55 -10 c-6 -6 -12 -5 -17 3 -5 8 -4 10 3 5 8 -5 12 1 13 16 1 18 2 19
6 4 3 -10 0 -23 -5 -28z m65 10 c-3 -7 -5 -2 -5 12 0 14 2 19 5 13 2 -7 2 -19
0 -25z m207 7 c3 -8 0 -17 -6 -21 -7 -4 -8 -3 -4 4 4 7 3 12 -2 12 -6 0 -12 7
-15 14 -4 10 -1 13 8 10 7 -3 16 -12 19 -19z m120 0 c3 -8 0 -17 -6 -21 -7 -4
-8 -3 -4 4 4 7 3 12 -2 12 -6 0 -12 7 -15 14 -4 10 -1 13 8 10 7 -3 16 -12 19
-19z m47 11 c5 3 9 0 9 -5 0 -6 -5 -11 -11 -11 -5 0 -7 -6 -3 -12 4 -7 3 -10
-1 -5 -5 4 -10 18 -11 30 -2 12 0 16 2 9 3 -6 10 -10 15 -6z m53 -16 c-6 -6
-10 -2 -11 12 -2 16 1 18 10 9 7 -7 8 -14 1 -21z m121 10 c0 -7 -7 -15 -15
-17 -13 -4 -13 -3 0 6 13 10 13 12 0 22 -13 9 -13 10 0 6 8 -2 15 -10 15 -17z
m415 16 c0 -2 -7 -7 -16 -10 -8 -3 -12 -2 -9 4 6 10 25 14 25 6z m-470 -16 c0
-5 -4 -10 -10 -10 -5 0 -10 5 -10 10 0 6 5 10 10 10 6 0 10 -4 10 -10z m120 0
c0 -5 -4 -10 -10 -10 -5 0 -10 5 -10 10 0 6 5 10 10 10 6 0 10 -4 10 -10z m60
0 c0 -5 -4 -10 -10 -10 -5 0 -10 5 -10 10 0 6 5 10 10 10 6 0 10 -4 10 -10z
m60 0 c0 -5 -4 -10 -10 -10 -5 0 -10 5 -10 10 0 6 5 10 10 10 6 0 10 -4 10
-10z m131 -7 c13 -16 12 -17 -3 -4 -17 13 -22 21 -14 21 2 0 10 -8 17 -17z
m49 2 c-7 -8 -17 -15 -23 -15 -6 0 -2 7 9 15 25 19 30 19 14 0z m65 5 c-3 -5
-12 -10 -18 -10 -7 0 -6 4 3 10 19 12 23 12 15 0z m65 6 c0 -2 -8 -10 -17 -17
-16 -13 -17 -12 -4 4 13 16 21 21 21 13z m54 -8 c-3 -4 -9 -8 -15 -8 -5 0 -9
4 -9 8 0 5 7 9 15 9 8 0 12 -4 9 -9z m62 -6 c1 -7 0 -8 -3 -2 -2 5 -9 8 -14 4
-5 -3 -9 0 -9 6 0 15 23 7 26 -8z m60 7 c3 -6 2 -15 -4 -21 -6 -6 -12 -6 -17
3 -5 8 -4 10 3 5 7 -4 12 -3 12 3 0 5 -6 12 -12 14 -10 4 -10 6 -1 6 6 1 15
-4 19 -10z m59 1 c3 -6 -1 -7 -9 -4 -18 7 -21 14 -7 14 6 0 13 -4 16 -10z m59
2 c3 -5 -1 -9 -9 -9 -8 0 -15 4 -15 9 0 4 4 8 9 8 6 0 12 -4 15 -8z m-549 -12
c-3 -5 -12 -10 -18 -10 -7 0 -6 4 3 10 19 12 23 12 15 0z m-875 -25 c14 -19
14 -19 -2 -6 -10 7 -18 18 -18 24 0 6 1 8 3 6 1 -2 9 -13 17 -24z m120 -10 c0
-5 -5 -3 -10 5 -5 8 -10 20 -10 25 0 6 5 3 10 -5 5 -8 10 -19 10 -25z m75 26
c-3 -5 -1 -12 5 -16 5 -3 10 -11 10 -18 0 -6 -7 -2 -15 9 -17 23 -19 34 -4 34
5 0 8 -4 4 -9z m494 -27 c10 -9 10 -13 0 -19 -7 -5 -10 -4 -7 1 6 12 -28 44
-38 36 -4 -4 -4 -1 1 7 7 12 10 12 19 0 7 -8 18 -19 25 -25z m92 -1 c-11 -16
-11 -15 -5 6 4 17 3 21 -6 16 -9 -6 -11 -4 -5 4 5 9 11 9 17 3 7 -7 6 -16 -1
-29z m141 30 c-6 -3 -10 -9 -6 -14 3 -5 0 -9 -5 -9 -6 0 -11 5 -11 11 0 5 -5
7 -12 3 -6 -4 -8 -3 -5 2 3 5 16 10 29 11 13 0 17 -1 10 -4z m99 -30 c-11 -16
-11 -15 -5 6 4 17 3 21 -6 16 -9 -6 -11 -4 -5 4 5 9 11 9 17 3 7 -7 6 -16 -1
-29z m69 33 c0 -2 -7 -7 -16 -10 -8 -3 -12 -2 -9 4 6 10 25 14 25 6z m66 -19
c1 -9 -2 -15 -7 -11 -5 3 -7 9 -4 14 3 4 0 11 -5 13 -6 3 -5 4 1 3 7 -1 13
-10 15 -19z m56 1 c-7 -7 -16 -6 -29 1 -16 11 -15 11 6 5 17 -4 21 -3 16 6 -6
9 -4 11 4 5 9 -5 9 -11 3 -17z m62 -18 c-5 -5 -10 3 -11 18 -1 22 0 24 9 8 6
-10 6 -22 2 -26z m126 5 c0 -5 -5 -3 -10 5 -5 8 -10 20 -10 25 0 6 5 3 10 -5
5 -8 10 -19 10 -25z m120 10 c14 -19 14 -19 -2 -6 -10 7 -18 18 -18 24 0 6 1
8 3 6 1 -2 9 -13 17 -24z m-972 -5 c-7 -10 -14 -18 -15 -16 -6 6 9 36 18 36 5
0 4 -9 -3 -20z m176 4 c9 -24 2 -26 -12 -4 -7 11 -8 20 -3 20 5 0 12 -7 15
-16z m641 -5 c-5 -16 -4 -19 5 -14 9 6 11 4 5 -4 -10 -18 -27 2 -19 22 9 25
17 21 9 -4z m75 11 c8 -5 12 -11 10 -14 -3 -2 -14 2 -24 10 -22 15 -10 19 14
4z m36 -22 c-9 -12 -16 -19 -16 -15 0 11 24 47 28 42 2 -2 -3 -14 -12 -27z
m82 23 c11 -7 10 -9 -3 -14 -9 -4 -14 -3 -10 2 3 5 -1 12 -7 14 -7 3 -8 6 -3
6 6 0 16 -3 23 -8z m-1588 -7 c0 -8 -19 -13 -24 -6 -3 5 1 9 9 9 8 0 15 -2 15
-3z m74 -9 c-4 -8 -11 -12 -16 -9 -6 4 -5 10 3 15 19 12 19 11 13 -6z m50 7
c3 -5 -1 -9 -9 -9 -8 0 -12 4 -9 9 3 4 7 8 9 8 2 0 6 -4 9 -8z m66 -12 c-24
-15 -36 -11 -14 4 10 8 21 12 24 10 2 -3 -2 -9 -10 -14z m163 13 c3 -5 -6 -9
-20 -10 -19 -1 -22 1 -12 8 17 11 26 11 32 2z m67 -8 c19 -22 8 -25 -12 -3
-10 10 -14 18 -9 18 5 0 14 -7 21 -15z m58 -6 c3 -11 2 -11 -7 1 -10 13 -12
13 -21 0 -5 -8 -10 -10 -10 -4 0 27 31 30 38 3z m35 3 c-10 -10 -20 -17 -22
-16 -6 5 20 34 30 34 5 0 1 -8 -8 -18z m137 8 c0 -5 -2 -10 -4 -10 -3 0 -8 5
-11 10 -3 6 -1 10 4 10 6 0 11 -4 11 -10z m250 -5 c19 -22 8 -25 -12 -3 -10
10 -14 18 -9 18 5 0 14 -7 21 -15z m96 3 c-10 -6 -22 -6 -26 -2 -5 5 3 10 18
11 22 1 24 0 8 -9z m154 -2 c-4 -4 -16 -4 -26 2 -16 9 -14 10 8 9 15 -1 23 -6
18 -11z m118 -6 c-7 -10 -14 -17 -17 -15 -4 4 18 35 25 35 2 0 -1 -9 -8 -20z
m82 1 c-13 -26 -13 -34 3 -25 6 4 8 3 4 -1 -4 -5 -14 -10 -22 -11 -13 -2 -12
2 0 27 9 16 18 29 21 29 2 0 0 -9 -6 -19z m-1085 0 c3 -5 2 -12 -3 -15 -5 -3
-9 1 -9 9 0 17 3 19 12 6z m127 -9 c-7 -2 -10 -8 -7 -13 4 -5 -2 -6 -11 -2
-11 4 -13 8 -6 11 7 2 10 8 7 13 -4 5 2 6 11 2 11 -4 13 -8 6 -11z m154 3 c-1
-8 -6 -18 -11 -22 -4 -4 -5 -2 -1 5 4 7 2 12 -6 12 -9 0 -9 3 2 10 19 12 19
13 16 -5z m80 -3 c1 -7 0 -8 -3 -2 -2 5 -9 10 -14 10 -6 0 -7 -5 -3 -12 4 -7
3 -8 -5 -4 -14 9 -4 29 12 23 6 -2 12 -9 13 -15z m164 -3 c0 -5 -4 -9 -8 -9
-5 0 -9 7 -9 15 0 8 4 12 9 9 4 -3 8 -9 8 -15z m75 11 c3 -6 -1 -7 -9 -4 -18
7 -21 14 -7 14 6 0 13 -4 16 -10z m-555 -10 c8 -5 11 -10 5 -10 -5 0 -17 5
-25 10 -8 5 -10 10 -5 10 6 0 17 -5 25 -10z m695 0 c-3 -5 -2 -10 4 -10 5 0
12 6 14 13 4 9 6 9 6 0 1 -15 -16 -26 -29 -18 -10 6 -5 25 6 25 3 0 2 -4 -1
-10z m120 -11 c-4 -5 0 -9 7 -10 10 0 10 -2 0 -6 -6 -2 -9 -10 -6 -15 4 -7 2
-8 -5 -4 -6 4 -8 12 -5 18 5 8 1 9 -12 5 -18 -7 -18 -6 -2 6 10 8 14 18 10 22
-4 5 -1 5 6 1 7 -4 10 -12 7 -17z m335 -1 c10 -21 10 -21 -3 -6 -8 10 -18 14
-22 10 -5 -4 -5 -1 -1 6 10 17 14 15 26 -10z m-1340 8 c0 -2 -7 -7 -16 -10 -8
-3 -12 -2 -9 4 6 10 25 14 25 6z m244 -25 c-2 -3 -12 3 -22 13 -16 17 -16 18
5 5 12 -7 20 -15 17 -18z m290 13 c3 -8 2 -12 -4 -9 -6 3 -10 1 -10 -6 0 -7
-2 -10 -5 -7 -5 5 4 38 10 38 2 0 6 -7 9 -16z m238 -26 c-6 -6 -12 -6 -17 3
-6 8 -4 10 5 4 9 -5 10 -1 6 16 -6 21 -6 22 5 6 7 -13 8 -22 1 -29z m319 15
c-12 -20 -14 -14 -5 12 4 9 9 14 11 11 3 -2 0 -13 -6 -23z m69 12 c0 -8 -4
-15 -10 -15 -5 0 -7 7 -4 15 4 8 8 15 10 15 2 0 4 -7 4 -15z m-1106 -7 c-3 -4
-9 -8 -15 -8 -5 0 -9 4 -9 8 0 5 7 9 15 9 8 0 12 -4 9 -9z m53 -10 c2 -18 0
-20 -7 -8 -12 18 -13 30 -2 30 4 0 9 -10 9 -22z m56 15 c-7 -2 -13 -9 -13 -14
0 -6 5 -7 12 -3 7 5 8 3 3 -5 -5 -9 -11 -9 -17 -3 -12 12 -2 32 15 31 9 0 9
-2 0 -6z m232 -3 c-3 -5 -12 -10 -18 -10 -7 0 -6 4 3 10 19 12 23 12 15 0z
m65 0 c-8 -5 -19 -10 -25 -10 -5 0 -3 5 5 10 8 5 20 10 25 10 6 0 3 -5 -5 -10z
m123 -10 c9 -11 13 -20 7 -20 -5 0 -14 9 -20 20 -6 11 -9 20 -8 20 2 0 11 -9
21 -20z m37 10 c-8 -5 -19 -10 -25 -10 -5 0 -3 5 5 10 8 5 20 10 25 10 6 0 3
-5 -5 -10z m63 -5 c-3 -9 -8 -14 -10 -11 -3 3 -2 9 2 15 9 16 15 13 8 -4z
m173 -1 c18 -14 18 -14 -6 -3 -31 14 -36 19 -24 19 6 0 19 -7 30 -16z m78 8
c3 -5 -1 -9 -9 -9 -8 0 -12 4 -9 9 3 4 7 8 9 8 2 0 6 -4 9 -8z m132 -15 c1 -9
-2 -15 -7 -11 -5 3 -7 9 -4 14 3 4 0 11 -5 13 -6 3 -5 4 1 3 7 -1 13 -10 15
-19z m229 13 c-3 -5 -12 -10 -18 -10 -7 0 -6 4 3 10 19 12 23 12 15 0z m-1213
-32 c-7 -7 -16 -6 -29 1 -16 11 -15 11 6 5 17 -4 21 -3 16 6 -6 9 -4 11 4 5 9
-5 9 -11 3 -17z m129 -15 c-11 -16 -11 -15 -5 6 4 17 3 21 -6 16 -9 -6 -11 -4
-5 4 5 9 11 9 17 3 7 -7 6 -16 -1 -29z m139 27 c0 -5 -4 -10 -10 -10 -5 0 -10
5 -10 10 0 6 5 10 10 10 6 0 10 -4 10 -10z m132 -12 c-7 -7 -16 -6 -29 1 -16
11 -15 11 6 5 17 -4 21 -3 16 6 -6 9 -4 11 4 5 9 -5 9 -11 3 -17z m145 7 c0
-8 -4 -12 -9 -9 -5 3 -6 10 -3 15 9 13 12 11 12 -6z m77 -25 c-5 -5 -10 3 -11
18 -1 22 0 24 9 8 6 -10 6 -22 2 -26z m46 10 c0 -6 -9 -2 -20 7 -11 10 -20 19
-20 21 0 1 9 -2 20 -8 11 -6 20 -15 20 -20z m75 21 c-3 -5 -1 -12 5 -16 5 -3
10 -11 10 -18 0 -6 -7 -2 -15 9 -17 23 -19 34 -4 34 5 0 8 -4 4 -9z m275 -16
c-7 -8 -16 -15 -21 -15 -5 0 -1 8 9 18 20 22 31 19 12 -3z m88 0 c0 -14 -4
-25 -7 -25 -4 0 -7 11 -7 25 0 14 3 25 7 25 3 0 7 -11 7 -25z m63 -7 c-10 -11
-11 -9 -5 6 6 15 4 17 -6 11 -9 -6 -11 -4 -5 4 5 9 10 10 18 2 8 -8 7 -14 -2
-23z m-979 4 c-7 -2 -10 -8 -7 -13 4 -5 -2 -6 -11 -2 -11 4 -13 8 -6 11 7 2
10 8 7 13 -4 5 2 6 11 2 11 -4 13 -8 6 -11z m43 -3 c-5 -16 -4 -19 5 -14 9 6
11 4 5 -4 -10 -18 -27 2 -19 22 9 25 17 21 9 -4z m57 -21 c-6 -6 -12 -6 -17 3
-6 8 -4 10 5 4 9 -5 10 -1 6 16 -6 21 -6 22 5 6 7 -13 8 -22 1 -29z m54 27
c-1 -8 -6 -18 -11 -22 -4 -4 -5 -2 -1 5 4 7 2 12 -6 12 -9 0 -9 3 2 10 19 12
19 13 16 -5z m116 -21 c-9 -16 -10 -14 -9 8 1 15 6 23 11 18 4 -4 4 -16 -2
-26z m129 21 c11 6 11 5 2 -5 -12 -14 -33 -6 -33 13 0 8 3 7 9 -2 5 -8 14 -10
22 -6z m279 5 c8 -5 12 -11 10 -14 -3 -2 -14 2 -24 10 -22 15 -10 19 14 4z
m49 -24 c-3 -3 -11 5 -18 17 -13 21 -12 21 5 5 10 -10 16 -20 13 -22z m-843
-3 c-6 -6 -36 9 -36 18 0 5 9 4 20 -3 10 -7 18 -14 16 -15z m634 7 c-24 -15
-36 -11 -14 4 10 8 21 12 24 10 2 -3 -2 -9 -10 -14z m115 1 c-3 -6 -11 -11
-16 -11 -5 0 -4 6 3 14 14 16 24 13 13 -3z m128 1 c-10 -10 -20 -17 -22 -16
-6 5 20 34 30 34 5 0 1 -8 -8 -18z m-168 -1 c3 -5 2 -12 -3 -15 -5 -3 -9 1 -9
9 0 17 3 19 12 6z m281 0 c-4 -5 0 -12 6 -15 7 -2 3 -4 -9 -2 -12 1 -26 6 -30
11 -5 4 -2 5 5 1 6 -4 12 -2 12 3 0 6 5 11 11 11 5 0 8 -4 5 -9z m-956 -11 c0
-5 -2 -10 -4 -10 -3 0 -8 5 -11 10 -3 6 -1 10 4 10 6 0 11 -4 11 -10z m389 -8
c7 -14 6 -19 -4 -19 -7 0 -11 7 -7 15 4 11 1 13 -8 7 -9 -5 -11 -4 -6 3 10 16
14 15 25 -6z m361 -8 c0 -8 -5 -14 -11 -14 -5 0 -7 -5 -3 -12 5 -7 3 -8 -5 -3
-9 5 -10 10 -2 18 15 15 14 30 -1 21 -7 -4 -8 -3 -4 5 9 14 26 5 26 -15z m125
17 c3 -5 0 -13 -6 -17 -7 -4 -9 -3 -5 4 3 5 0 13 -6 15 -9 4 -10 6 -1 6 6 1
14 -3 18 -8z m-593 -15 c7 4 8 2 4 -5 -4 -6 -12 -9 -17 -6 -5 4 -9 1 -9 -6 0
-7 -2 -10 -5 -7 -3 3 -2 13 2 24 4 11 8 13 11 6 2 -7 9 -9 14 -6z m51 1 c3 -8
-1 -14 -8 -14 -7 0 -11 6 -8 14 3 7 6 13 8 13 2 0 5 -6 8 -13z m123 -15 c-4
-3 -14 2 -24 12 -16 18 -16 18 6 6 13 -6 21 -14 18 -18z m85 5 c-10 -9 -11 -8
-5 6 3 10 9 15 12 12 3 -3 0 -11 -7 -18z m374 13 c3 -6 -1 -7 -9 -4 -18 7 -21
14 -7 14 6 0 13 -4 16 -10z m-745 -10 c8 -5 11 -10 5 -10 -5 0 -17 5 -25 10
-8 5 -10 10 -5 10 6 0 17 -5 25 -10z m60 0 c8 -5 11 -10 5 -10 -5 0 -17 5 -25
10 -8 5 -10 10 -5 10 6 0 17 -5 25 -10z m290 -25 c0 -5 -5 -3 -10 5 -5 8 -10
20 -10 25 0 6 5 3 10 -5 5 -8 10 -19 10 -25z m76 23 c3 -4 -1 -5 -10 -4 -8 1
-18 5 -22 8 -3 4 1 5 10 4 8 -1 18 -5 22 -8z m44 2 c0 -5 -2 -10 -4 -10 -3 0
-8 5 -11 10 -3 6 -1 10 4 10 6 0 11 -4 11 -10z m60 0 c0 -5 -2 -10 -4 -10 -3
0 -8 5 -11 10 -3 6 -1 10 4 10 6 0 11 -4 11 -10z m145 0 c-3 -5 -12 -10 -18
-10 -7 0 -6 4 3 10 19 12 23 12 15 0z m-631 -18 c3 -5 -1 -9 -9 -9 -8 0 -12 4
-9 9 3 4 7 8 9 8 2 0 6 -4 9 -8z m137 -15 c-10 -9 -11 -8 -5 6 3 10 9 15 12
12 3 -3 0 -11 -7 -18z m84 14 c3 -5 2 -12 -3 -15 -5 -3 -9 1 -9 9 0 17 3 19
12 6z m57 -13 c-7 -7 -16 -6 -29 1 -16 11 -15 11 6 5 17 -4 21 -3 16 6 -6 9
-4 11 4 5 9 -5 9 -11 3 -17z m148 2 c-8 -5 -19 -10 -25 -10 -5 0 -3 5 5 10 8
5 20 10 25 10 6 0 3 -5 -5 -10z"/>
</g>
</svg>
