<svg xmlns="http://www.w3.org/2000/svg" xmlns:xlink="http://www.w3.org/1999/xlink" viewBox="0 0 222.27 54.47"><defs><linearGradient id="linear-gradient" x1="2.35" y1="16.26" x2="222.27" y2="16.26" gradientUnits="userSpaceOnUse"><stop offset="0" stop-color="#df375a"/><stop offset="0.51" stop-color="#f67549"/><stop offset="0.81" stop-color="#7663af"/></linearGradient></defs><path d="M2.35,31.83V.74H14.93c3,0,5.32.71,7,2.13s2.48,3.55,2.48,6.36a8.43,8.43,0,0,1-.74,3.64,7.34,7.34,0,0,1-2,2.65,8.88,8.88,0,0,1-3.12,1.61,13.48,13.48,0,0,1-4,.55H3.22V31.83Zm12.58-15a11.22,11.22,0,0,0,3.4-.5,7.94,7.94,0,0,0,2.72-1.48,7.07,7.07,0,0,0,1.81-2.38,7.59,7.59,0,0,0,.65-3.22A7.33,7.33,0,0,0,21.4,3.57c-1.41-1.31-3.56-2-6.47-2H3.22v15.2Z" fill="url(#linear-gradient)"/><path d="M26.39,16.28A20.86,20.86,0,0,1,27.32,10a15.75,15.75,0,0,1,2.74-5.18,13.1,13.1,0,0,1,4.49-3.52A13.88,13.88,0,0,1,40.71,0a13.88,13.88,0,0,1,6.16,1.31,13.1,13.1,0,0,1,4.49,3.52A15.56,15.56,0,0,1,54.1,10,20.87,20.87,0,0,1,55,16.28a20.77,20.77,0,0,1-.94,6.27,15.52,15.52,0,0,1-2.74,5.19,12.93,12.93,0,0,1-4.49,3.5,14,14,0,0,1-6.16,1.29,14,14,0,0,1-6.16-1.29,12.93,12.93,0,0,1-4.49-3.5,15.7,15.7,0,0,1-2.74-5.19A20.77,20.77,0,0,1,26.39,16.28Zm.87,0a20,20,0,0,0,1,6.19,14.65,14.65,0,0,0,2.65,4.87,11.94,11.94,0,0,0,4.2,3.2,13.19,13.19,0,0,0,5.62,1.16,13.19,13.19,0,0,0,5.62-1.16,11.94,11.94,0,0,0,4.2-3.2,14.67,14.67,0,0,0,2.66-4.87,20.2,20.2,0,0,0,0-12.37,14.57,14.57,0,0,0-2.66-4.87A12.08,12.08,0,0,0,46.33,2,14.31,14.31,0,0,0,35.09,2a12.08,12.08,0,0,0-4.2,3.21,14.55,14.55,0,0,0-2.65,4.87A20,20,0,0,0,27.26,16.28Z" fill="url(#linear-gradient)"/><path d="M58.74,31.83V.74H71.45q4.88,0,7.14,1.94t2.35,6a7.45,7.45,0,0,1-1.65,5.2,8.84,8.84,0,0,1-5,2.81v.09a9,9,0,0,1,3.18.93,4.84,4.84,0,0,1,1.87,1.77,6.68,6.68,0,0,1,.87,2.57,22.4,22.4,0,0,1,.22,3.35c0,.43,0,1,0,1.63s.08,1.3.13,1.94.13,1.22.22,1.74a2.75,2.75,0,0,0,.35,1.09h-1a5.58,5.58,0,0,1-.35-1.29c-.08-.53-.15-1.11-.19-1.72s-.08-1.22-.09-1.85,0-1.18,0-1.67a19.38,19.38,0,0,0-.28-3.42,5,5,0,0,0-3.64-4.09,13.6,13.6,0,0,0-4.31-.55H59.61V31.83ZM71.23,16.37a12.56,12.56,0,0,0,3.33-.43,7.81,7.81,0,0,0,2.81-1.4,7.13,7.13,0,0,0,2-2.41,7.74,7.74,0,0,0,.74-3.51,6.93,6.93,0,0,0-2-5.16q-2-1.84-6.4-1.85H59.61V16.37Z" fill="url(#linear-gradient)"/><path d="M110.33,24.84a13.49,13.49,0,0,1-2.81,4.07,12.33,12.33,0,0,1-4.07,2.66,13.92,13.92,0,0,1-5.31,1,13.36,13.36,0,0,1-5.68-1.2A13.12,13.12,0,0,1,88,28,15.36,15.36,0,0,1,85.12,23a19.21,19.21,0,0,1-1-6.42,21.62,21.62,0,0,1,.8-5.77,16.47,16.47,0,0,1,2.55-5.34A13.62,13.62,0,0,1,92,1.52,13.91,13.91,0,0,1,98.71,0a13.27,13.27,0,0,1,5.4,1A12.83,12.83,0,0,1,108,3.59a11.11,11.11,0,0,1,2.33,3.29,8.54,8.54,0,0,1,.83,3.18h-.87a8.49,8.49,0,0,0-1-3.33,10.31,10.31,0,0,0-2.37-2.94,11.88,11.88,0,0,0-3.57-2.11,13.91,13.91,0,0,0-11.06.74A13.09,13.09,0,0,0,88,6.29a15.9,15.9,0,0,0-2.33,5.07A20.48,20.48,0,0,0,85,16.55a18.75,18.75,0,0,0,.87,5.7,14.54,14.54,0,0,0,2.57,4.83,12.88,12.88,0,0,0,4.16,3.36,12.08,12.08,0,0,0,5.59,1.26,13,13,0,0,0,5-.92A11.6,11.6,0,0,0,107,28.26a13,13,0,0,0,2.61-3.83,17.08,17.08,0,0,0,1.35-4.79h.87A18.33,18.33,0,0,1,110.33,24.84Z" fill="url(#linear-gradient)"/><path d="M138,.74V20.25q0,6.27-2.92,9.27c-1.94,2-4.77,3-8.49,3s-6.54-1-8.49-3-2.91-5.09-2.91-9.27V.74H116V20.25c0,3.74.85,6.59,2.56,8.53s4.37,2.92,8,2.92,6.26-1,8-2.92,2.57-4.79,2.57-8.53V.74Z" fill="url(#linear-gradient)"/><path d="M142.68,31.83V.74h12.59a10.34,10.34,0,0,1,7,2.13c1.66,1.43,2.48,3.55,2.48,6.36a8.43,8.43,0,0,1-.74,3.64,7.34,7.34,0,0,1-2,2.65,8.88,8.88,0,0,1-3.12,1.61,13.48,13.48,0,0,1-4,.55H143.55V31.83Zm12.59-15a11.15,11.15,0,0,0,3.39-.5,7.94,7.94,0,0,0,2.72-1.48,7,7,0,0,0,1.81-2.38,7.44,7.44,0,0,0,.65-3.22,7.33,7.33,0,0,0-2.11-5.66q-2.11-2-6.46-2H143.55v15.2Z" fill="url(#linear-gradient)"/><path d="M168.55.74V31.83h-.88V.74Z" fill="url(#linear-gradient)"/><path d="M174.55.74l21.25,30h.09V.74h.87V31.83h-1.31l-21.24-30h-.09v30h-.87V.74Z" fill="url(#linear-gradient)"/><path d="M222.27,31v.87H201.46V.74H222.1v.87H202.33V15.2h18.59v.87H202.33V31Z" fill="url(#linear-gradient)"/><text transform="translate(0 51.03)" font-size="12" font-family="HelveticaNeue-Medium, Helvetica Neue" font-weight="500"><tspan xml:space="preserve">C a p i t a l    M a n a g e m e n t</tspan></text><text transform="translate(0 51.03)" font-size="12" fill="#2b2b30" font-family="HelveticaNeue-Medium, Helvetica Neue" font-weight="500"><tspan xml:space="preserve">C a p i t a l    M a n a g e m e n t</tspan></text></svg>
